<svg width="680" height="420" viewBox="0 0 680 420" xmlns="http://www.w3.org/2000/svg">

  <rect x="130" y="80" width="220" height="120" rx="20" fill="#378ADD"/>
  <polygon points="148,200 170,200 155,222" fill="#378ADD"/>
  <text font-family="sans-serif" font-weight="700" font-size="22" fill="white" x="240" y="135" text-anchor="middle">Start Your</text>
  <text font-family="sans-serif" font-weight="700" font-size="22" fill="white" x="240" y="162" text-anchor="middle">Story Here.</text>

  <rect x="30" y="68" width="115" height="82" rx="8" fill="#D3D1C7"/>
  <rect x="35" y="73" width="105" height="65" rx="5" fill="white"/>
  <rect x="40" y="78" width="44" height="32" rx="3" fill="#B4B2A9"/>
  <rect x="90" y="78" width="44" height="15" rx="3" fill="#B4B2A9"/>
  <rect x="90" y="96" width="30" height="8" rx="3" fill="#D3D1C7"/>
  <rect x="40" y="114" width="94" height="8" rx="3" fill="#D3D1C7"/>
  <rect x="40" y="126" width="70" height="8" rx="3" fill="#D3D1C7"/>
  <rect x="82" y="150" width="11" height="16" rx="2" fill="#B4B2A9"/>
  <rect x="72" y="164" width="31" height="5" rx="2" fill="#B4B2A9"/>

  <circle cx="400" cy="75" r="18" fill="none" stroke="#B4B2A9" stroke-width="3"/>
  <circle cx="400" cy="75" r="8" fill="none" stroke="#B4B2A9" stroke-width="2"/>
  <rect x="397" y="54" width="6" height="8" rx="2" fill="#B4B2A9"/>
  <rect x="397" y="89" width="6" height="8" rx="2" fill="#B4B2A9"/>
  <rect x="379" y="72" width="8" height="6" rx="2" fill="#B4B2A9"/>
  <rect x="413" y="72" width="8" height="6" rx="2" fill="#B4B2A9"/>
  <circle cx="450" cy="100" r="14" fill="none" stroke="#D3D1C7" stroke-width="2.5"/>
  <circle cx="450" cy="100" r="6" fill="none" stroke="#D3D1C7" stroke-width="1.5"/>

  <ellipse cx="500" cy="185" rx="18" ry="20" fill="#85B7EB"/>
  <rect x="492" y="204" width="16" height="5" rx="2" fill="#85B7EB"/>
  <rect x="494" y="210" width="12" height="4" rx="2" fill="#378ADD"/>
  <line x1="500" y1="162" x2="500" y2="155" stroke="#85B7EB" stroke-width="2" stroke-linecap="round"/>
  <line x1="483" y1="168" x2="478" y2="163" stroke="#85B7EB" stroke-width="2" stroke-linecap="round"/>
  <line x1="517" y1="168" x2="522" y2="163" stroke="#85B7EB" stroke-width="2" stroke-linecap="round"/>

  <ellipse cx="420" cy="155" rx="28" ry="18" fill="#D3D1C7"/>
  <ellipse cx="400" cy="158" rx="18" ry="14" fill="#D3D1C7"/>
  <ellipse cx="444" cy="158" rx="16" ry="13" fill="#D3D1C7"/>
  <rect x="456" y="135" width="9" height="28" rx="2" transform="rotate(35,460,149)" fill="#378ADD"/>
  <polygon points="456,154 464,154 460,164" transform="rotate(35,460,149)" fill="#185FA5"/>

  <rect x="38" y="310" width="36" height="28" rx="4" fill="#888780"/>
  <ellipse cx="56" cy="310" rx="22" ry="8" fill="#378ADD"/>
  <path d="M56,310 Q46,290 38,278" fill="none" stroke="#378ADD" stroke-width="4" stroke-linecap="round"/>
  <path d="M56,304 Q64,285 75,278" fill="none" stroke="#378ADD" stroke-width="3.5" stroke-linecap="round"/>
  <path d="M56,295 Q52,275 48,265" fill="none" stroke="#378ADD" stroke-width="3" stroke-linecap="round"/>
  <ellipse cx="38" cy="278" rx="10" ry="8" fill="#85B7EB"/>
  <ellipse cx="75" cy="278" rx="10" ry="8" fill="#85B7EB"/>
  <ellipse cx="48" cy="264" rx="9" ry="7" fill="#85B7EB"/>

  <ellipse cx="108" cy="232" rx="28" ry="30" fill="#444441"/>
  <circle cx="108" cy="242" r="22" fill="#D3D1C7"/>
  <ellipse cx="100" cy="239" rx="3" ry="4" fill="#2C2C2A"/>
  <ellipse cx="116" cy="239" rx="3" ry="4" fill="#2C2C2A"/>
  <path d="M100,251 Q108,257 116,251" fill="none" stroke="#888780" stroke-width="1.5" stroke-linecap="round"/>
  <path d="M86,264 Q82,285 80,320 L136,320 Q134,285 130,264 Q118,257 108,257 Q98,257 86,264Z" fill="#185FA5"/>
  <path d="M86,280 Q72,290 65,305" fill="none" stroke="#D3D1C7" stroke-width="8" stroke-linecap="round"/>
  <path d="M130,280 Q144,290 150,300" fill="none" stroke="#D3D1C7" stroke-width="8" stroke-linecap="round"/>
  <rect x="52" y="300" width="38" height="26" rx="4" fill="#2C2C2A"/>
  <rect x="54" y="302" width="34" height="19" rx="2" fill="#5F5E5A" opacity="0.7"/>
  <rect x="48" y="325" width="46" height="5" rx="2" fill="#2C2C2A"/>

  <circle cx="345" cy="165" r="22" fill="#B4B2A9"/>
  <ellipse cx="345" cy="150" rx="24" ry="18" fill="#2C2C2A"/>
  <ellipse cx="337" cy="163" rx="3" ry="4" fill="#2C2C2A"/>
  <ellipse cx="353" cy="163" rx="3" ry="4" fill="#2C2C2A"/>
  <path d="M337,175 Q345,181 353,175" fill="none" stroke="#5F5E5A" stroke-width="1.5" stroke-linecap="round"/>
  <path d="M323,187 Q319,210 317,255 L373,255 Q371,210 367,187 Q355,180 345,180 Q335,180 323,187Z" fill="#888780"/>
  <rect x="317" y="252" width="24" height="45" rx="4" fill="#444441"/>
  <rect x="347" y="252" width="24" height="45" rx="4" fill="#444441"/>
  <path d="M367,200 Q385,195 398,188" fill="none" stroke="#B4B2A9" stroke-width="8" stroke-linecap="round"/>

  <circle cx="235" cy="335" r="22" fill="#D3D1C7"/>
  <ellipse cx="235" cy="320" rx="26" ry="20" fill="#2C2C2A"/>
  <ellipse cx="227" cy="332" rx="3" ry="4" fill="#2C2C2A"/>
  <ellipse cx="243" cy="332" rx="3" ry="4" fill="#2C2C2A"/>
  <rect x="212" y="357" width="46" height="40" rx="8" fill="#378ADD"/>
  <path d="M212,397 Q200,400 188,398" fill="none" stroke="#444441" stroke-width="12" stroke-linecap="round"/>
  <path d="M258,397 Q270,400 282,398" fill="none" stroke="#444441" stroke-width="12" stroke-linecap="round"/>
  <rect x="185" y="388" width="100" height="18" rx="4" fill="#2C2C2A"/>
  <rect x="187" y="370" width="96" height="22" rx="4" fill="#5F5E5A"/>
  <rect x="189" y="372" width="92" height="18" rx="3" fill="#85B7EB" opacity="0.4"/>

  <circle cx="480" cy="250" r="22" fill="#D3D1C7"/>
  <ellipse cx="480" cy="234" rx="26" ry="22" fill="#5F5E5A"/>
  <path d="M458,250 Q454,275 456,300" fill="none" stroke="#5F5E5A" stroke-width="8" stroke-linecap="round"/>
  <ellipse cx="472" cy="247" rx="3" ry="4" fill="#2C2C2A"/>
  <ellipse cx="488" cy="247" rx="3" ry="4" fill="#2C2C2A"/>
  <path d="M472,260 Q480,266 488,260" fill="none" stroke="#888780" stroke-width="1.5" stroke-linecap="round"/>
  <path d="M458,272 Q454,295 452,338 L508,338 Q506,295 502,272 Q490,265 480,265 Q470,265 458,272Z" fill="#888780"/>
  <path d="M502,285 Q514,278 520,268" fill="none" stroke="#D3D1C7" stroke-width="8" stroke-linecap="round"/>
  <rect x="516" y="258" width="16" height="26" rx="4" fill="#2C2C2A"/>
  <rect x="518" y="260" width="12" height="20" rx="2" fill="#85B7EB" opacity="0.5"/>

  <circle cx="380" cy="228" r="4" fill="#378ADD" opacity="0.7"/>
  <circle cx="165" cy="195" r="3" fill="#85B7EB" opacity="0.7"/>
  <circle cx="460" cy="130" r="3" fill="#888780" opacity="0.6"/>

</svg>
