<svg width="680" height="420" viewBox="0 0 680 420" xmlns="http://www.w3.org/2000/svg">

  <rect x="155" y="60" width="140" height="80" rx="16" fill="#378ADD"/>
  <polygon points="170,140 185,140 177,158" fill="#378ADD"/>
  <rect x="168" y="75" width="100" height="10" rx="5" fill="white" opacity="0.5"/>
  <rect x="168" y="93" width="120" height="10" rx="5" fill="white" opacity="0.5"/>
  <rect x="168" y="111" width="75" height="10" rx="5" fill="white" opacity="0.5"/>

  <rect x="260" y="30" width="130" height="70" rx="14" fill="#888780"/>
  <polygon points="265,100 280,100 270,116" fill="#888780"/>
  <rect x="272" y="44" width="80" height="9" rx="4" fill="white" opacity="0.5"/>
  <rect x="272" y="60" width="105" height="9" rx="4" fill="white" opacity="0.5"/>
  <rect x="272" y="76" width="60" height="9" rx="4" fill="white" opacity="0.5"/>

  <rect x="40" y="195" width="150" height="75" rx="14" fill="#85B7EB"/>
  <polygon points="60,195 75,195 65,180" fill="#85B7EB"/>
  <rect x="52" y="210" width="110" height="9" rx="4" fill="white" opacity="0.5"/>
  <rect x="52" y="227" width="128" height="9" rx="4" fill="white" opacity="0.5"/>
  <rect x="52" y="244" width="80" height="9" rx="4" fill="white" opacity="0.5"/>

  <rect x="215" y="280" width="65" height="36" rx="18" fill="#B4B2A9"/>
  <circle cx="231" cy="298" r="5" fill="white"/>
  <circle cx="248" cy="298" r="5" fill="white"/>
  <circle cx="265" cy="298" r="5" fill="white"/>
  <polygon points="218,310 228,316 218,316" fill="#B4B2A9"/>

  <circle cx="200" cy="155" r="5" fill="#378ADD" opacity="0.7"/>
  <circle cx="240" cy="135" r="5" fill="#888780" opacity="0.7"/>
  <circle cx="225" cy="175" r="4" fill="#85B7EB" opacity="0.5"/>

  <ellipse cx="130" cy="100" rx="30" ry="32" fill="#444441"/>
  <rect x="100" y="105" width="10" height="20" rx="5" fill="#444441"/>
  <circle cx="130" cy="110" r="24" fill="#D3D1C7"/>
  <ellipse cx="122" cy="107" rx="3" ry="4" fill="#2C2C2A"/>
  <ellipse cx="138" cy="107" rx="3" ry="4" fill="#2C2C2A"/>
  <path d="M122,118 Q130,124 138,118" fill="none" stroke="#888780" stroke-width="1.5" stroke-linecap="round"/>
  <path d="M105,138 Q100,160 98,200 L162,200 Q160,160 155,138 Q143,130 130,130 Q117,130 105,138Z" fill="#378ADD"/>
  <path d="M105,155 Q88,165 82,178" fill="none" stroke="#D3D1C7" stroke-width="8" stroke-linecap="round"/>
  <path d="M155,155 Q170,162 178,170" fill="none" stroke="#D3D1C7" stroke-width="8" stroke-linecap="round"/>
  <rect x="72" y="174" width="22" height="16" rx="3" fill="#2C2C2A"/>
  <rect x="74" y="176" width="18" height="12" rx="2" fill="#85B7EB" opacity="0.7"/>

  <ellipse cx="310" cy="68" rx="30" ry="22" fill="#2C2C2A"/>
  <circle cx="310" cy="80" r="24" fill="#B4B2A9"/>
  <path d="M290,108 Q295,100 310,100 Q325,100 330,108" fill="#888780" stroke="none"/>
  <ellipse cx="302" cy="77" rx="3" ry="4" fill="#2C2C2A"/>
  <ellipse cx="318" cy="77" rx="3" ry="4" fill="#2C2C2A"/>
  <path d="M302,90 Q310,96 318,90" fill="none" stroke="#5F5E5A" stroke-width="1.5" stroke-linecap="round"/>
  <path d="M286,108 Q282,130 280,175 L340,175 Q338,130 334,108 Q322,102 310,102 Q298,102 286,108Z" fill="#888780"/>
  <rect x="336" y="135" width="14" height="22" rx="4" fill="#2C2C2A"/>
  <rect x="337" y="137" width="12" height="17" rx="2" fill="#85B7EB" opacity="0.5"/>

  <ellipse cx="100" cy="278" rx="30" ry="25" fill="#5F5E5A"/>
  <path d="M72,290 Q68,320 70,345" fill="none" stroke="#5F5E5A" stroke-width="10" stroke-linecap="round"/>
  <circle cx="100" cy="290" r="24" fill="#D3D1C7"/>
  <ellipse cx="92" cy="287" rx="3" ry="4" fill="#2C2C2A"/>
  <ellipse cx="108" cy="287" rx="3" ry="4" fill="#2C2C2A"/>
  <path d="M92,300 Q100,306 108,300" fill="none" stroke="#888780" stroke-width="1.5" stroke-linecap="round"/>
  <path d="M76,318 Q72,340 70,385 L130,385 Q128,340 124,318 Q112,310 100,310 Q88,310 76,318Z" fill="#185FA5"/>
  <path d="M76,335 Q60,345 55,360" fill="none" stroke="#D3D1C7" stroke-width="8" stroke-linecap="round"/>
  <rect x="42" y="357" width="24" height="18" rx="3" fill="#2C2C2A"/>
  <rect x="44" y="359" width="20" height="14" rx="2" fill="#85B7EB" opacity="0.6"/>

  <ellipse cx="320" cy="298" rx="28" ry="18" fill="#2C2C2A"/>
  <circle cx="320" cy="310" r="24" fill="#B4B2A9"/>
  <ellipse cx="312" cy="307" rx="3" ry="4" fill="#2C2C2A"/>
  <ellipse cx="328" cy="307" rx="3" ry="4" fill="#2C2C2A"/>
  <path d="M312,320 Q320,326 328,320" fill="none" stroke="#5F5E5A" stroke-width="1.5" stroke-linecap="round"/>
  <path d="M296,338 Q292,360 290,405 L350,405 Q348,360 344,338 Q332,330 320,330 Q308,330 296,338Z" fill="#5F5E5A"/>
  <rect x="350" y="358" width="38" height="26" rx="4" fill="#2C2C2A"/>
  <rect x="352" y="360" width="34" height="20" rx="2" fill="#444441" opacity="0.6"/>
  <rect x="345" y="384" width="48" height="5" rx="2" fill="#2C2C2A"/>

</svg>
